<svg xmlns="http://www.w3.org/2000/svg" xmlns:xlink="http://www.w3.org/1999/xlink" style="" xml:space="preserve" width="217.6" height="64.1"><rect id="backgroundrect" width="100%" height="100%" x="0" y="0" fill="none" stroke="none"/> <style type="text/css"> .st0{fill:#FFFFFF;} .st1{fill:#5BC8F3;} .st2{fill:url(#SVGID_1_);} .st3{fill:url(#SVGID_00000079472409735980628190000016130751020556863661_);} .st4{fill:url(#SVGID_00000150791054359583783060000006215399313311784857_);} </style>    <linearGradient id="SVGID_1_" gradientUnits="userSpaceOnUse" x1="50.189998626708984" y1="31.6648006439209" x2="11.300000190734863" y2="31.6648006439209" gradientTransform="matrix(1 0 0 -1 0 63.8898)"> <stop offset="0" style="stop-color:#FFDF00"/> <stop offset="0.41" style="stop-color:#FBBC0E"/> <stop offset="0.78" style="stop-color:#F9A418"/> <stop offset="1" style="stop-color:#F89B1C"/> </linearGradient>  <linearGradient id="SVGID_00000140706522536493938510000012374024784269151873_" gradientUnits="userSpaceOnUse" x1="40.099998474121094" y1="27.98979949951172" x2="3.5299999713897705" y2="-8.5802001953125" gradientTransform="matrix(1 0 0 -1 0 63.8898)"> <stop offset="0" style="stop-color:#EE4447"/> <stop offset="1" style="stop-color:#C5166C"/> </linearGradient>  <linearGradient id="SVGID_00000067935013445067606030000010728653922408290216_" gradientUnits="userSpaceOnUse" x1="3.365000009536743" y1="72.10479736328125" x2="33.224998474121094" y2="42.24480056762695" gradientTransform="matrix(1 0 0 -1 0 63.8898)"> <stop offset="0" style="stop-color:#269E6F"/> <stop offset="5.000000e-02" style="stop-color:#2BA06F"/> <stop offset="0.47" style="stop-color:#53B26B"/> <stop offset="0.8" style="stop-color:#6BBD69"/> <stop offset="1" style="stop-color:#74C168"/> </linearGradient>  <g class="currentLayer" style=""><title>Layer 1</title><path d="M8.2,0.8h201.2c4.1,0,7.4,3.3,7.4,7.4v47.7c0,4.1-3.3,7.4-7.4,7.4H8.2c-4.1,0-7.4-3.3-7.4-7.4V8.2C0.8,4.1,4.1,0.8,8.2,0.8z " id="svg_1" class="" fill="#0c1016" fill-opacity="1"/><path class="st0" d="M109.8,28.3c-3.8,0-6.8,3.1-6.8,6.9c0,3.8,3.1,6.8,6.9,6.8c3.8,0,6.8-3.1,6.8-6.8c0.1-3.7-2.9-6.8-6.6-6.8 C109.9,28.3,109.9,28.3,109.8,28.3z M109.8,39.3c-2.3,0.2-4.3-1.6-4.4-3.8c-0.2-2.3,1.6-4.3,3.8-4.4c2.3-0.2,4.3,1.6,4.4,3.8 c0,0.1,0,0.2,0,0.3C113.7,37.4,112,39.2,109.8,39.3C109.8,39.3,109.8,39.3,109.8,39.3z M94.8,28.3c-3.8,0-6.8,3.1-6.8,6.9 c0,3.8,3.1,6.8,6.9,6.8c3.8,0,6.8-3.1,6.8-6.8c0.1-3.7-2.9-6.8-6.6-6.8C94.9,28.3,94.9,28.3,94.8,28.3L94.8,28.3z M94.8,39.3 c-2.3,0.2-4.3-1.6-4.4-3.8c-0.2-2.3,1.6-4.3,3.8-4.4c2.3-0.2,4.3,1.6,4.4,3.8c0,0.1,0,0.2,0,0.3C98.7,37.4,97,39.2,94.8,39.3 L94.8,39.3z M77,30.4v2.9h6.9c-0.1,1.4-0.7,2.6-1.6,3.7C81,38.4,79,39.2,77,39.1c-4.3,0-7.7-3.5-7.7-7.7c0-4.3,3.5-7.7,7.7-7.7 c1.9,0,3.8,0.7,5.2,2.1l2.1-2c-1.9-1.9-4.6-3-7.3-3c-5.9-0.2-10.8,4.4-11,10.3s4.4,10.8,10.3,11c0.2,0,0.4,0,0.7,0 c2.8,0.1,5.5-1,7.4-3c1.7-1.8,2.6-4.3,2.5-6.8c0-0.6,0-1.2-0.2-1.8L77,30.4z M149.9,32.7c-0.8-2.6-3.2-4.3-5.9-4.4 c-3.6,0-6.5,3-6.5,6.5c0,0.1,0,0.2,0,0.3c-0.1,3.7,2.9,6.8,6.6,6.8c0.1,0,0.2,0,0.2,0c2.3,0,4.4-1.1,5.7-3l-2.3-1.6 c-0.7,1.2-2,1.9-3.4,1.9c-1.4,0.1-2.8-0.8-3.3-2.1l9.1-3.8L149.9,32.7z M140.5,35c-0.1-2.1,1.4-3.9,3.5-4c0,0,0.1,0,0.1,0 c1.1-0.1,2.1,0.5,2.5,1.4L140.5,35z M133.1,41.6h3V21.5h-3V41.6z M128.2,29.9h-0.1c-0.9-1-2.2-1.6-3.6-1.5c-3.8,0.2-6.7,3.4-6.5,7.2 c0.2,3.5,3,6.3,6.5,6.5c1.4,0,2.7-0.5,3.6-1.5h0.1v1c0,2.6-1.4,4-3.7,4c-1.5,0-2.9-1-3.4-2.4l-2.6,1.1c1,2.4,3.4,4,6.1,4 c3.5,0,6.5-2.1,6.5-7.1V28.8h-2.9L128.2,29.9z M124.7,39.3c-2.2-0.1-3.9-1.9-3.8-4c0,0,0-0.1,0-0.1c-0.1-2.2,1.6-4.1,3.8-4.2 c2,0,3.6,1.8,3.6,4.2c0.2,2.1-1.4,4-3.5,4.1C124.8,39.3,124.8,39.3,124.7,39.3z M163.9,21.5h-7.2v20.1h3V34h4.2 c3.4,0.1,6.4-2.5,6.5-6c0.1-3.4-2.5-6.4-6-6.5C164.3,21.5,164.1,21.5,163.9,21.5L163.9,21.5z M164,31.2h-4.3v-6.9h4.3 c1.9-0.1,3.5,1.4,3.6,3.3c0.1,1.9-1.4,3.5-3.3,3.6C164.2,31.2,164.1,31.2,164,31.2L164,31.2z M182.6,28.3c-2.2-0.1-4.3,1.1-5.4,3.1 l2.7,1.1c0.5-1,1.6-1.6,2.8-1.5c1.6,0,3.1,0.9,3.1,2.6v0.2c-1-0.5-2-0.8-3.1-0.8c-2.9,0-5.8,1.6-5.8,4.5c0,2.7,2.4,4.4,5,4.4 c1.5,0.1,3-0.7,3.8-2h0.1v1.5h2.9v-7.7C188.7,30.3,186,28.3,182.6,28.3z M182.2,39.3c-1,0-2.4-0.5-2.4-1.7c0-1.5,1.7-2.1,3.2-2.1 c1,0,1.9,0.2,2.7,0.7C185.5,37.9,184,39.3,182.2,39.3z M199.2,28.7l-3.4,8.7h-0.1l-3.6-8.7h-3.2l5.4,12.2l-3.1,6.8h3.1l8.2-19 L199.2,28.7z M172.2,41.6h3V21.5h-3V41.6z" id="svg_2"/><path class="st1" d="M17,12.2c-0.5,0.6-0.8,1.4-0.7,2.3V50c0,0.8,0.2,1.6,0.7,2.2l0.1,0.1L37,32.5V32L17.1,12.1L17,12.2z" id="svg_3"/><path class="st2" d="M43.6,39.1L37,32.5V32l6.6-6.6l0.2,0.1l7.9,4.5c2.2,1.3,2.2,3.4,0,4.6L43.8,39L43.6,39.1z" id="svg_4"/><path style="fill:url(#SVGID_00000140706522536493938510000012374024784269151873_);" d="M43.8,39L37,32.2l-20,20 c0.7,0.8,2,0.9,3.3,0.1L43.8,39" id="svg_5"/><path style="fill:url(#SVGID_00000067935013445067606030000010728653922408290216_);" d="M43.8,25.4L20.3,12.1 c-1.4-0.8-2.6-0.7-3.3,0.1l20,20L43.8,25.4z" id="svg_6"/></g></svg>