<svg width="150" height="34" viewBox="0 0 150 34" fill="none" xmlns="http://www.w3.org/2000/svg">
<path d="M75.25 0C78.375 0 86.5 20.9655 86.5 20.9655H64C64 20.9655 72.1251 0 75.25 0Z" fill="#6940EE"/>
<rect x="13" y="9" width="125" height="25" fill="#6940EE"/>
<circle cx="12.5" cy="21.5" r="12.5" fill="#6940EE"/>
<circle cx="137.5" cy="21.5" r="12.5" fill="#6940EE"/>
<path d="M41.462 19.058C41.15 18.7027 40.7773 18.4297 40.344 18.239C39.9193 18.0397 39.46 17.94 38.966 17.94C38.5153 17.94 38.0993 18.0267 37.718 18.2C37.3367 18.3733 37.0073 18.6117 36.73 18.915C36.4527 19.227 36.236 19.5997 36.08 20.033C35.924 20.4577 35.846 20.93 35.846 21.45C35.846 21.9787 35.924 22.4553 36.08 22.88C36.2447 23.3133 36.47 23.686 36.756 23.998C37.042 24.3013 37.38 24.5397 37.77 24.713C38.1687 24.8777 38.602 24.96 39.07 24.96C39.6767 24.96 40.201 24.83 40.643 24.57C41.085 24.3013 41.4403 23.959 41.709 23.543L42.658 24.232C42.2507 24.8213 41.7523 25.285 41.163 25.623C40.565 25.961 39.8673 26.13 39.07 26.13C38.4113 26.13 37.8047 26.013 37.25 25.779C36.6953 25.5537 36.2143 25.233 35.807 24.817C35.4083 24.401 35.092 23.907 34.858 23.335C34.6327 22.763 34.52 22.1347 34.52 21.45C34.52 20.7653 34.6327 20.1327 34.858 19.552C35.092 18.98 35.404 18.4903 35.794 18.083C36.1927 17.667 36.6607 17.342 37.198 17.108C37.744 16.8827 38.329 16.77 38.953 16.77C39.681 16.77 40.3397 16.913 40.929 17.199C41.5183 17.485 41.995 17.8403 42.359 18.265L41.462 19.058ZM46.9533 19.37C47.4559 19.37 47.9153 19.4523 48.3313 19.617C48.7559 19.7903 49.1199 20.0243 49.4233 20.319C49.7353 20.6223 49.9736 20.982 50.1383 21.398C50.3116 21.8053 50.3983 22.256 50.3983 22.75C50.3983 23.2353 50.3116 23.686 50.1383 24.102C49.9649 24.518 49.7266 24.8733 49.4233 25.168C49.1199 25.4713 48.7559 25.7053 48.3313 25.87C47.9153 26.0433 47.4559 26.13 46.9533 26.13C46.4593 26.13 45.9999 26.0433 45.5753 25.87C45.1506 25.7053 44.7866 25.4713 44.4833 25.168C44.1799 24.8733 43.9416 24.518 43.7683 24.102C43.5949 23.686 43.5083 23.2353 43.5083 22.75C43.5083 22.256 43.5949 21.8053 43.7683 21.398C43.9416 20.982 44.1799 20.6223 44.4833 20.319C44.7866 20.0243 45.1506 19.7903 45.5753 19.617C45.9913 19.4523 46.4506 19.37 46.9533 19.37ZM46.9533 20.488C46.6326 20.488 46.3379 20.5443 46.0693 20.657C45.8006 20.7697 45.5709 20.93 45.3803 21.138C45.1809 21.3373 45.0249 21.5757 44.9123 21.853C44.8083 22.1217 44.7563 22.4207 44.7563 22.75C44.7563 23.0707 44.8126 23.3697 44.9253 23.647C45.0293 23.9243 45.1766 24.1627 45.3673 24.362C45.5666 24.5613 45.8006 24.7217 46.0693 24.843C46.3379 24.9557 46.6326 25.012 46.9533 25.012C47.2739 25.012 47.5686 24.9557 47.8373 24.843C48.1059 24.7217 48.3356 24.5613 48.5263 24.362C48.7256 24.1627 48.8816 23.9243 48.9943 23.647C49.0983 23.3697 49.1503 23.0707 49.1503 22.75C49.1503 22.4207 49.0983 22.1217 48.9943 21.853C48.8816 21.5757 48.7256 21.3373 48.5263 21.138C48.3356 20.93 48.1059 20.7697 47.8373 20.657C47.5686 20.5443 47.2739 20.488 46.9533 20.488ZM52.9899 19.5V20.475C53.1892 20.1803 53.4579 19.9247 53.7959 19.708C54.1252 19.4827 54.5195 19.37 54.9789 19.37C54.9702 19.37 54.9702 19.37 54.9789 19.37C55.4035 19.37 55.7805 19.4827 56.1099 19.708C56.4479 19.9333 56.7035 20.2713 56.8769 20.722C56.9722 20.5573 57.0892 20.397 57.2279 20.241C57.3579 20.0763 57.5139 19.929 57.6959 19.799C57.8692 19.669 58.0685 19.565 58.2939 19.487C58.5192 19.409 58.7662 19.37 59.0349 19.37C59.3382 19.37 59.6242 19.4263 59.8929 19.539C60.1529 19.6517 60.3782 19.8207 60.5689 20.046C60.7682 20.2627 60.9199 20.5357 61.0239 20.865C61.1365 21.203 61.1929 21.5887 61.1929 22.022V26H59.9709V22.022C59.9709 21.476 59.8842 21.073 59.7109 20.813C59.5549 20.5963 59.2732 20.488 58.8659 20.488C58.7965 20.488 58.7229 20.488 58.6449 20.488C58.4195 20.5053 58.2115 20.5703 58.0209 20.683C57.8389 20.787 57.6785 20.9127 57.5399 21.06C57.4012 21.2073 57.2929 21.3677 57.2149 21.541C57.1369 21.7143 57.0979 21.8747 57.0979 22.022V26H55.8759V22.022C55.8759 21.476 55.7849 21.073 55.6029 20.813C55.4555 20.5963 55.1782 20.488 54.7709 20.488C54.7015 20.488 54.6279 20.488 54.5499 20.488C54.3245 20.5053 54.1165 20.5703 53.9259 20.683C53.7352 20.787 53.5705 20.9127 53.4319 21.06C53.2932 21.2073 53.1849 21.3677 53.1069 21.541C53.0289 21.7143 52.9899 21.8747 52.9899 22.022V26H51.7679V19.5H52.9899ZM64.1109 19.5V26H62.8889V19.5H64.1109ZM62.8889 16.9H64.1109V18.122H62.8889V16.9ZM66.8232 19.5L67.0182 20.423C67.2348 20.1457 67.5122 19.903 67.8502 19.695C68.1882 19.4783 68.6042 19.37 69.0982 19.37C69.4188 19.37 69.7178 19.4263 69.9952 19.539C70.2812 19.6517 70.5238 19.8207 70.7232 20.046C70.9312 20.2627 71.0915 20.5357 71.2042 20.865C71.3255 21.203 71.3862 21.5887 71.3862 22.022V26H70.1642V22.022C70.1642 20.9993 69.7092 20.488 68.7992 20.488C68.7298 20.488 68.6562 20.488 68.5782 20.488C68.3528 20.5053 68.1448 20.5703 67.9542 20.683C67.7635 20.787 67.5988 20.9127 67.4602 21.06C67.3215 21.2073 67.2132 21.3677 67.1352 21.541C67.0572 21.7143 67.0182 21.8747 67.0182 22.022V26H65.7962V19.5H66.8232ZM79.2196 19.5V26.819C79.2196 27.2437 79.1373 27.612 78.9726 27.924C78.8079 28.236 78.5826 28.4917 78.2966 28.691C78.0106 28.899 77.6683 29.0507 77.2696 29.146C76.8709 29.25 76.4333 29.302 75.9566 29.302C75.6706 29.302 75.3803 29.2803 75.0856 29.237C74.7909 29.1937 74.4529 29.1157 74.0716 29.003V27.859C74.1149 27.8763 74.2016 27.9067 74.3316 27.95C74.4616 27.9847 74.6176 28.0193 74.7996 28.054C74.9816 28.0887 75.1809 28.119 75.3976 28.145C75.6143 28.171 75.8353 28.184 76.0606 28.184C76.0693 28.184 76.0736 28.184 76.0736 28.184C76.3163 28.184 76.5503 28.1667 76.7756 28.132C77.0096 28.0887 77.2176 28.015 77.3996 27.911C77.5816 27.807 77.7289 27.6683 77.8416 27.495C77.9543 27.313 78.0106 27.0877 78.0106 26.819V25.051C77.7333 25.3977 77.3996 25.662 77.0096 25.844C76.6283 26.0347 76.2079 26.13 75.7486 26.13C75.3153 26.13 74.9166 26.0433 74.5526 25.87C74.1799 25.7053 73.8593 25.4757 73.5906 25.181C73.3306 24.8777 73.1269 24.518 72.9796 24.102C72.8236 23.686 72.7456 23.2353 72.7456 22.75C72.7456 22.256 72.8236 21.8053 72.9796 21.398C73.1269 20.982 73.3349 20.6267 73.6036 20.332C73.8723 20.0287 74.1929 19.7903 74.5656 19.617C74.9383 19.4523 75.3456 19.37 75.7876 19.37C76.2383 19.37 76.6543 19.4567 77.0356 19.63C77.4169 19.8033 77.7463 20.059 78.0236 20.397L78.2056 19.5H79.2196ZM74.5656 24.362C74.7389 24.5613 74.9513 24.7173 75.2026 24.83C75.4453 24.9427 75.7096 24.999 75.9956 24.999C76.2903 24.999 76.5589 24.9427 76.8016 24.83C77.0443 24.7173 77.2566 24.5613 77.4386 24.362C77.6119 24.1627 77.7506 23.9243 77.8546 23.647C77.9586 23.3783 78.0106 23.0793 78.0106 22.75C78.0106 22.4207 77.9586 22.1217 77.8546 21.853C77.7506 21.5757 77.6119 21.333 77.4386 21.125C77.2566 20.9257 77.0443 20.7697 76.8016 20.657C76.5589 20.5443 76.2903 20.488 75.9956 20.488C75.7096 20.488 75.4453 20.5443 75.2026 20.657C74.9513 20.7697 74.7389 20.9257 74.5656 21.125C74.3836 21.333 74.2406 21.5757 74.1366 21.853C74.0413 22.1217 73.9936 22.4207 73.9936 22.75C73.9936 23.0707 74.0456 23.3697 74.1496 23.647C74.2449 23.9243 74.3836 24.1627 74.5656 24.362ZM87.4827 16.77C88.02 16.77 88.527 16.861 89.0037 17.043C89.489 17.2163 89.9354 17.4763 90.3427 17.823L89.5627 18.785C89.1987 18.473 88.839 18.2477 88.4837 18.109C88.1284 17.9703 87.786 17.901 87.4567 17.901C87.006 17.901 86.6377 18.0093 86.3517 18.226C86.0657 18.4513 85.9227 18.7417 85.9227 19.097C85.9227 19.3223 85.9574 19.5217 86.0267 19.695C86.0874 19.8683 86.1914 20.0287 86.3387 20.176C86.4947 20.3233 86.6984 20.4577 86.9497 20.579C87.201 20.709 87.513 20.839 87.8857 20.969C88.8564 21.2983 89.5497 21.671 89.9657 22.087C90.3817 22.503 90.5897 23.036 90.5897 23.686C90.5897 24.024 90.516 24.3403 90.3687 24.635C90.2127 24.9383 90.0047 25.1983 89.7447 25.415C89.476 25.6403 89.164 25.818 88.8087 25.948C88.462 26.078 88.085 26.143 87.6777 26.143C87.331 26.143 87.0104 26.1213 86.7157 26.078C86.4124 26.0347 86.1264 25.9697 85.8577 25.883C85.5977 25.7963 85.342 25.6837 85.0907 25.545C84.8394 25.3977 84.588 25.2243 84.3367 25.025L85.1687 24.024C85.5327 24.3447 85.914 24.583 86.3127 24.739C86.72 24.895 87.1317 24.973 87.5477 24.973C88.085 24.973 88.5054 24.856 88.8087 24.622C89.112 24.388 89.268 24.0803 89.2767 23.699C89.2767 23.4823 89.242 23.296 89.1727 23.14C89.1034 22.9753 88.982 22.8237 88.8087 22.685C88.6267 22.5463 88.3797 22.412 88.0677 22.282C87.747 22.1433 87.3397 21.9917 86.8457 21.827C86.1177 21.5843 85.5674 21.2463 85.1947 20.813C84.8307 20.371 84.6487 19.8423 84.6487 19.227C84.6487 18.863 84.7137 18.5337 84.8437 18.239C84.9737 17.9357 85.16 17.6757 85.4027 17.459C85.6454 17.2423 85.94 17.0733 86.2867 16.952C86.642 16.8307 87.0407 16.77 87.4827 16.77ZM95.2843 19.37C95.787 19.37 96.2463 19.4523 96.6623 19.617C97.087 19.7903 97.451 20.0243 97.7543 20.319C98.0663 20.6223 98.3047 20.982 98.4693 21.398C98.6427 21.8053 98.7293 22.256 98.7293 22.75C98.7293 23.2353 98.6427 23.686 98.4693 24.102C98.296 24.518 98.0577 24.8733 97.7543 25.168C97.451 25.4713 97.087 25.7053 96.6623 25.87C96.2463 26.0433 95.787 26.13 95.2843 26.13C94.7903 26.13 94.331 26.0433 93.9063 25.87C93.4817 25.7053 93.1177 25.4713 92.8143 25.168C92.511 24.8733 92.2727 24.518 92.0993 24.102C91.926 23.686 91.8393 23.2353 91.8393 22.75C91.8393 22.256 91.926 21.8053 92.0993 21.398C92.2727 20.982 92.511 20.6223 92.8143 20.319C93.1177 20.0243 93.4817 19.7903 93.9063 19.617C94.3223 19.4523 94.7817 19.37 95.2843 19.37ZM95.2843 20.488C94.9637 20.488 94.669 20.5443 94.4003 20.657C94.1317 20.7697 93.902 20.93 93.7113 21.138C93.512 21.3373 93.356 21.5757 93.2433 21.853C93.1393 22.1217 93.0873 22.4207 93.0873 22.75C93.0873 23.0707 93.1437 23.3697 93.2563 23.647C93.3603 23.9243 93.5077 24.1627 93.6983 24.362C93.8977 24.5613 94.1317 24.7217 94.4003 24.843C94.669 24.9557 94.9637 25.012 95.2843 25.012C95.605 25.012 95.8997 24.9557 96.1683 24.843C96.437 24.7217 96.6667 24.5613 96.8573 24.362C97.0567 24.1627 97.2127 23.9243 97.3253 23.647C97.4293 23.3697 97.4813 23.0707 97.4813 22.75C97.4813 22.4207 97.4293 22.1217 97.3253 21.853C97.2127 21.5757 97.0567 21.3373 96.8573 21.138C96.6667 20.93 96.437 20.7697 96.1683 20.657C95.8997 20.5443 95.605 20.488 95.2843 20.488ZM103.219 19.37C103.722 19.37 104.181 19.4523 104.597 19.617C105.022 19.7903 105.386 20.0243 105.689 20.319C106.001 20.6223 106.239 20.982 106.404 21.398C106.577 21.8053 106.664 22.256 106.664 22.75C106.664 23.2353 106.577 23.686 106.404 24.102C106.231 24.518 105.992 24.8733 105.689 25.168C105.386 25.4713 105.022 25.7053 104.597 25.87C104.181 26.0433 103.722 26.13 103.219 26.13C102.725 26.13 102.266 26.0433 101.841 25.87C101.416 25.7053 101.052 25.4713 100.749 25.168C100.446 24.8733 100.207 24.518 100.034 24.102C99.8606 23.686 99.7739 23.2353 99.7739 22.75C99.7739 22.256 99.8606 21.8053 100.034 21.398C100.207 20.982 100.446 20.6223 100.749 20.319C101.052 20.0243 101.416 19.7903 101.841 19.617C102.257 19.4523 102.716 19.37 103.219 19.37ZM103.219 20.488C102.898 20.488 102.604 20.5443 102.335 20.657C102.066 20.7697 101.837 20.93 101.646 21.138C101.447 21.3373 101.291 21.5757 101.178 21.853C101.074 22.1217 101.022 22.4207 101.022 22.75C101.022 23.0707 101.078 23.3697 101.191 23.647C101.295 23.9243 101.442 24.1627 101.633 24.362C101.832 24.5613 102.066 24.7217 102.335 24.843C102.604 24.9557 102.898 25.012 103.219 25.012C103.54 25.012 103.834 24.9557 104.103 24.843C104.372 24.7217 104.601 24.5613 104.792 24.362C104.991 24.1627 105.147 23.9243 105.26 23.647C105.364 23.3697 105.416 23.0707 105.416 22.75C105.416 22.4207 105.364 22.1217 105.26 21.853C105.147 21.5757 104.991 21.3373 104.792 21.138C104.601 20.93 104.372 20.7697 104.103 20.657C103.834 20.5443 103.54 20.488 103.219 20.488ZM109.06 19.5L109.255 20.423C109.472 20.1457 109.749 19.903 110.087 19.695C110.425 19.4783 110.841 19.37 111.335 19.37C111.656 19.37 111.955 19.4263 112.232 19.539C112.518 19.6517 112.761 19.8207 112.96 20.046C113.168 20.2627 113.329 20.5357 113.441 20.865C113.563 21.203 113.623 21.5887 113.623 22.022V26H112.401V22.022C112.401 20.9993 111.946 20.488 111.036 20.488C110.967 20.488 110.893 20.488 110.815 20.488C110.59 20.5053 110.382 20.5703 110.191 20.683C110.001 20.787 109.836 20.9127 109.697 21.06C109.559 21.2073 109.45 21.3677 109.372 21.541C109.294 21.7143 109.255 21.8747 109.255 22.022V26H108.033V19.5H109.06ZM116.426 16.9L116.257 23.556L115.295 23.543L115.126 16.9H116.426ZM116.426 24.7V26H115.126V24.7H116.426Z" fill="white"/>
</svg>
