<?xml version="1.0"?>
<svg width="217.6" height="64.1" xmlns="http://www.w3.org/2000/svg" xmlns:svg="http://www.w3.org/2000/svg" enable-background="new 0 0 217.6 64.1" xml:space="preserve">
 <style type="text/css">.st0{fill:#A6A8AB;} .st1{fill:#FFFFFF;}</style>
 <g class="layer">
  <title>Layer 1</title>
  <path d="m8.2,0.8l201.2,0c4.1,0 7.4,3.3 7.4,7.4l0,47.7c0,4.1 -3.3,7.4 -7.4,7.4l-201.2,0c-4.1,0 -7.4,-3.3 -7.4,-7.4l0,-47.7c0,-4.1 3.3,-7.4 7.4,-7.4z" fill="#0c1016" id="svg_1"/>
  <path class="st1" d="m48.6,31.4c0,-3.2 1.7,-6.2 4.5,-7.9c-1.7,-2.5 -4.5,-4 -7.6,-4.1c-3.2,-0.3 -6.3,1.9 -7.9,1.9s-4.1,-1.9 -6.9,-1.8c-3.5,0.1 -6.7,2.1 -8.5,5.2c-3.7,6.3 -0.9,15.7 2.6,20.8c1.8,2.5 3.8,5.3 6.5,5.2s3.6,-1.7 6.8,-1.7s4.1,1.7 6.8,1.6s4.6,-2.5 6.3,-5c1.3,-1.8 2.2,-3.8 2.9,-5.8c-3.4,-1.4 -5.6,-4.7 -5.5,-8.4" id="svg_3" transform="matrix(1 0 0 1 0 0)"/>
  <path class="st1" d="m43.4,16.1c1.5,-1.8 2.3,-4.2 2.1,-6.6c-2.3,0.2 -4.5,1.4 -6.1,3.1c-1.5,1.7 -2.3,4 -2.2,6.4c2.4,0 4.7,-1.1 6.2,-2.9" id="svg_4" transform="matrix(1 0 0 1 0 0)"/>
  <path class="st1" d="m86.5,42.2l-3.7,0l-2,-6.3l-7,0l-1.9,6.3l-3.5,0l6.9,-21.4l4.3,0l6.9,21.4zm-6.3,-8.9l-1.8,-5.6c-0.2,-0.6 -0.6,-1.9 -1.1,-4l-0.1,0c-0.2,0.9 -0.6,2.2 -1,4l-1.8,5.6l5.8,0z" id="svg_5"/>
  <path class="st1" d="m104.3,34.3c0.1,2.3 -0.6,4.5 -2.1,6.2c-1.2,1.3 -2.9,2 -4.7,2c-1.8,0.1 -3.5,-0.7 -4.4,-2.2l-0.1,0l0,8.2l-3.4,0l0,-16.7c0,-1.7 0,-3.3 -0.1,-5.1l3,0l0.2,2.5l0.1,0c1.8,-2.8 5.6,-3.6 8.4,-1.8c0.5,0.3 1,0.7 1.3,1.2c1.2,1.6 1.8,3.6 1.8,5.7m-3.6,0.1c0.1,-1.3 -0.3,-2.6 -1,-3.7c-0.7,-1 -1.8,-1.6 -3,-1.5c-0.8,0 -1.7,0.3 -2.3,0.8c-0.7,0.6 -1.2,1.3 -1.3,2.2c-0.1,0.3 -0.1,0.7 -0.2,1l0,2.6c0,1 0.3,2.1 1,2.8c0.7,0.8 1.7,1.2 2.7,1.2c1.2,0 2.3,-0.5 3,-1.5c0.8,-1.1 1.2,-2.5 1.1,-3.9" id="svg_6"/>
  <path class="st1" d="m122,34.3c0.1,2.3 -0.6,4.5 -2.1,6.2c-1.2,1.3 -2.9,2 -4.7,2c-1.8,0.1 -3.5,-0.7 -4.4,-2.2l-0.1,0l0,8.2l-3.4,0l0,-16.7c0,-1.7 0,-3.3 -0.1,-5.1l3,0l0.2,2.5l0.1,0c1.8,-2.8 5.6,-3.6 8.4,-1.8c0.5,0.3 1,0.7 1.3,1.2c1.3,1.6 1.9,3.6 1.8,5.7m-3.5,0.1c0.1,-1.3 -0.3,-2.6 -1,-3.7c-0.7,-1 -1.8,-1.6 -3,-1.5c-0.8,0 -1.7,0.3 -2.3,0.8c-0.7,0.6 -1.2,1.3 -1.3,2.2c-0.1,0.3 -0.1,0.7 -0.2,1l0,2.6c0,1 0.3,2.1 1,2.8c0.7,0.8 1.7,1.2 2.7,1.2c1.2,0 2.3,-0.5 3,-1.5c0.8,-1.2 1.2,-2.5 1.1,-3.9" id="svg_7"/>
  <path class="st1" d="m141.9,36.2c0.1,1.7 -0.6,3.3 -1.9,4.5c-1.6,1.3 -3.7,2 -5.8,1.9c-1.9,0.1 -3.9,-0.4 -5.6,-1.3l0.8,-2.9c1.5,0.9 3.2,1.4 5,1.4c1.1,0.1 2.1,-0.3 3,-0.9c0.7,-0.6 1.1,-1.4 1.1,-2.3c0,-0.8 -0.3,-1.6 -0.9,-2.2c-0.9,-0.7 -1.9,-1.3 -3,-1.7c-3.7,-1.4 -5.6,-3.4 -5.6,-6.1c0,-1.7 0.7,-3.3 2,-4.3c1.5,-1.2 3.4,-1.8 5.2,-1.7c1.7,-0.1 3.3,0.3 4.9,1l-0.9,2.8c-1.3,-0.7 -2.7,-1 -4.1,-1c-1,-0.1 -2,0.3 -2.8,0.9c-0.6,0.5 -0.9,1.2 -0.9,1.9c0,0.8 0.4,1.6 1,2.1c0.9,0.7 2,1.3 3.1,1.7c1.5,0.5 2.9,1.4 4.1,2.6c0.9,0.9 1.4,2.2 1.3,3.6" id="svg_8"/>
  <path class="st1" d="m153.3,29.3l-3.8,0l0,7.5c0,1.9 0.7,2.9 2,2.9c0.5,0 1,0 1.5,-0.2l0.1,2.6c-0.9,0.3 -1.8,0.4 -2.7,0.4c-1.2,0.1 -2.3,-0.4 -3.2,-1.2c-0.9,-1.2 -1.3,-2.7 -1.1,-4.2l0,-7.8l-2.3,0l0,-2.6l2.3,0l0,-2.8l3.4,-1l0,3.8l3.8,0l0,2.6z" id="svg_9"/>
  <path class="st1" d="m170.3,34.3c0.1,2.1 -0.6,4.2 -2,5.9c-1.4,1.6 -3.5,2.4 -5.7,2.3c-2.1,0.1 -4,-0.7 -5.4,-2.3c-1.4,-1.6 -2.1,-3.6 -2,-5.7c-0.1,-2.2 0.7,-4.3 2.1,-5.9c1.4,-1.6 3.5,-2.4 5.6,-2.3c2.1,-0.1 4.1,0.7 5.5,2.3c1.4,1.6 2.1,3.7 1.9,5.7m-3.4,0.2c0,-1.3 -0.3,-2.5 -0.9,-3.7c-0.9,-1.7 -3.1,-2.4 -4.8,-1.4c-0.6,0.3 -1.1,0.8 -1.4,1.4c-0.6,1.1 -1,2.4 -0.9,3.7c0,1.3 0.3,2.6 0.9,3.7c0.6,1.1 1.7,1.8 3,1.9c1.3,0 2.5,-0.7 3.1,-1.9c0.7,-1.1 1,-2.4 0.9,-3.7" id="svg_10"/>
  <path class="st1" d="m181.5,29.8c-0.4,-0.1 -0.7,-0.1 -1.1,-0.1c-1.1,0 -2.2,0.5 -2.8,1.4c-0.6,0.9 -0.9,1.9 -0.9,3l0,8.1l-3.4,0l0,-10.6c0,-1.8 0,-3.4 -0.1,-4.9l3,0l0.1,3l0.1,0c0.3,-1 0.9,-1.8 1.7,-2.5c0.7,-0.5 1.6,-0.8 2.5,-0.8c0.3,0 0.6,0 0.9,0.1l0,3.3z" id="svg_11"/>
  <path class="st1" d="m196.9,33.7c0,0.5 0,1 -0.1,1.6l-10.3,0c0,1.3 0.5,2.6 1.5,3.5c1,0.8 2.2,1.1 3.4,1.1c1.4,0 2.8,-0.2 4.2,-0.7l0.5,2.4c-1.6,0.7 -3.4,1 -5.2,1c-2.1,0.1 -4.1,-0.7 -5.6,-2.1c-1.4,-1.5 -2.2,-3.6 -2.1,-5.7c-0.1,-2.1 0.6,-4.2 1.9,-5.8c1.3,-1.6 3.3,-2.6 5.4,-2.5c2,-0.1 3.9,0.8 5.1,2.5c0.8,1.4 1.3,3.1 1.3,4.7m-3.3,-0.8c0,-0.9 -0.2,-1.8 -0.7,-2.6c-0.6,-0.9 -1.6,-1.5 -2.7,-1.5c-1.1,0 -2.1,0.5 -2.7,1.4c-0.6,0.8 -0.9,1.7 -1,2.7l7.1,0z" id="svg_12"/>
 </g>
</svg>