<svg xmlns="http://www.w3.org/2000/svg" xmlns:xlink="http://www.w3.org/1999/xlink" fill="#000000" height="459" width="459" version="1.1" xml:space="preserve"><rect id="backgroundrect" width="100%" height="100%" x="0" y="0" fill="none" stroke="none"/>

<g class="currentLayer" style=""><title>Layer 1</title><rect fill="#ffffff" stroke="#222222" stroke-width="2" stroke-linejoin="round" stroke-dashoffset="" fill-rule="nonzero" id="svg_5" x="132.39849853515625" y="116.20301055908203" width="200.87217712402344" height="216.29324340820312" style="color: rgb(0, 0, 0);" class="" fill-opacity="1"/><g id="svg_1" class="">
	<g id="svg_2">
		<path d="M229.5,0C102.751,0,0,102.751,0,229.5S102.751,459,229.5,459S459,356.249,459,229.5S356.249,0,229.5,0z M310.292,239.651    l-111.764,76.084c-3.761,2.56-8.63,2.831-12.652,0.704c-4.022-2.128-6.538-6.305-6.538-10.855V153.416    c0-4.55,2.516-8.727,6.538-10.855c4.022-2.127,8.891-1.857,12.652,0.704l111.764,76.084c3.359,2.287,5.37,6.087,5.37,10.151    C315.662,233.564,313.652,237.364,310.292,239.651z" id="svg_3"/>
	</g>
</g></g></svg>