<svg width="256" height="116" viewBox="0 0 256 116" fill="none" xmlns="http://www.w3.org/2000/svg">
<path d="M4.26665 55.6118H60.0277C63.3637 28.3514 64.7365 0 85.9728 0C98.2832 0 102.821 10.3541 105.398 19.3748C108.249 29.3488 109.692 42.5895 111.019 55.6118H144.98C145.728 48.2702 146.52 40.7871 147.566 33.9824C147.766 32.6802 149.827 31.7144 152.18 31.8256C154.527 31.9366 156.269 33.0822 156.069 34.3844C155.045 41.0424 154.263 48.3894 153.527 55.6118H187.419C185.935 43.4458 184.471 28.0284 181.041 17.7201C177.141 5.99838 172.038 4.73292 170.026 4.73292C168.312 4.73292 162.398 6.05843 158.237 23.1159C157.921 24.4109 155.774 25.3176 153.437 25.1436C151.102 24.9682 149.465 23.7764 149.781 22.4814C152.493 11.3643 157.019 0 170.026 0C182.393 0 187.025 9.62291 189.433 16.861C192.921 27.3427 194.291 41.8813 195.971 55.6118H251.733C254.09 55.6118 256 56.6714 256 57.9783C256 59.2851 254.09 60.3447 251.733 60.3447H196.573C197.654 68.501 198.972 76.3195 201.037 82.527C204.938 94.2484 210.04 95.5139 212.053 95.5139C215.984 95.5139 218.863 91.4968 220.23 89.1022C222.689 84.7941 224.559 78.6478 226.116 69.7597C226.343 68.4593 228.424 67.5074 230.775 67.6331C233.12 67.7597 234.837 68.9166 234.609 70.2173C232.994 79.4435 231.01 85.8983 228.366 90.5307C226.995 92.9338 222.821 100.247 212.053 100.247C199.687 100.247 195.055 90.6242 192.646 83.3858C190.48 76.8742 189.125 68.7625 188.018 60.3444H153.047C149.878 91.437 146.986 115.956 128.001 115.956C115.691 115.956 111.153 105.602 108.575 96.5814C102.592 75.6406 102.865 40.7439 96.9717 20.1152C92.8917 5.8422 87.5221 4.73292 85.9728 4.73292C83.9605 4.73292 78.8576 5.99838 74.9579 17.7198C71.5269 28.0298 70.1061 43.0935 68.5808 55.6118H81.9787C84.3349 55.6118 86.2453 56.6714 86.2453 57.9783C86.2453 59.2851 84.3349 60.3447 81.9787 60.3447H67.9835C66.8763 68.7625 65.5211 76.8742 63.3541 83.3861C60.9456 90.6242 56.3141 100.247 43.9472 100.247C32.5691 100.247 28.0363 92.2987 25.616 86.3199C22.7317 79.1936 21.1413 69.7319 19.9104 60.3447H4.26665C1.91039 60.3447 -1.33514e-05 59.2851 -1.33514e-05 57.9783C-1.33514e-05 56.6714 1.91039 55.6118 4.26665 55.6118V55.6118ZM127.999 111.224C129.548 111.224 134.918 110.114 138.997 95.841C141.763 86.1619 143.191 73.163 144.499 60.3447H111.5C112.808 73.163 114.237 86.1616 117.002 95.841C121.081 110.114 126.451 111.224 127.999 111.224V111.224ZM33.9429 85.2831C39.8091 99.7765 49.5216 98.8796 54.9627 82.5273C57.0283 76.3201 58.3461 68.5013 59.4266 60.345H28.4672C29.6672 69.4328 31.2101 78.5333 33.9429 85.2831V85.2831Z" fill="#3590F3"/>
</svg>
