<svg width="254" height="116" viewBox="0 0 254 116" fill="none" xmlns="http://www.w3.org/2000/svg">
<path d="M60.0551 55.6721L60.0017 56.1118H59.5588H4.23335C3.13354 56.1118 2.16246 56.3621 1.48396 56.7414C0.789139 57.1298 0.500015 57.5873 0.500015 57.9783C0.500015 58.3692 0.789139 58.8267 1.48396 59.2151C2.16246 59.5944 3.13354 59.8447 4.23335 59.8447H19.7549H20.194L20.2507 60.2802C21.4723 69.6693 23.0445 79.0729 25.8799 86.1335C27.0715 89.1005 28.7643 92.5044 31.524 95.1656C34.2692 97.8129 38.0925 99.7471 43.6039 99.7471C49.5869 99.7471 53.6714 97.4095 56.5652 94.1963C59.4758 90.9643 61.1958 86.8294 62.3844 83.2293C64.5184 76.7659 65.8584 68.695 66.9566 60.28L67.0134 59.8447H67.4523H81.3382C82.438 59.8447 83.4091 59.5944 84.0876 59.2151C84.7824 58.8267 85.0715 58.3692 85.0715 57.9783C85.0715 57.5873 84.7824 57.1298 84.0876 56.7414C83.4091 56.3621 82.438 56.1118 81.3382 56.1118H68.045H67.4809L67.5486 55.5518C67.7535 53.8573 67.9566 52.1139 68.1633 50.3402C69.4791 39.0476 70.938 26.5263 73.8975 17.563C75.8492 11.6506 78.1206 8.31633 80.2063 6.45755C82.302 4.58985 84.1872 4.23292 85.3011 4.23292C86.2044 4.23292 88.0487 4.56447 90.1723 6.72085C92.2829 8.86403 94.6584 12.7973 96.6952 19.9788C99.6197 30.2964 101.018 44.146 102.415 57.9852L102.435 58.1811C103.841 72.1166 105.255 86.0263 108.208 96.4451C109.483 100.941 111.226 105.704 114.133 109.339C117.022 112.951 121.063 115.456 127.001 115.456C131.588 115.456 135.176 113.969 138.046 111.275C140.931 108.568 143.119 104.616 144.838 99.6466C148.28 89.6972 149.78 75.8598 151.354 60.2941L151.399 59.8444H151.851H186.549H186.988L187.045 60.2797C188.143 68.695 189.483 76.7659 191.616 83.229C192.805 86.8292 194.525 90.9642 197.436 94.1961C200.329 97.4093 204.414 99.7468 210.397 99.7468C220.789 99.7468 224.801 92.6606 226.147 90.2844L226.582 90.5307L226.147 90.2843C228.728 85.7261 230.684 79.3376 232.284 70.1317C232.349 69.753 232.154 69.3086 231.55 68.8985C230.954 68.4934 230.04 68.192 228.945 68.1324C227.849 68.0733 226.832 68.2693 226.08 68.6158C225.307 68.9715 224.914 69.4323 224.842 69.8453C223.295 78.7514 221.427 84.9652 218.945 89.3486L218.51 89.1022L218.945 89.3487C218.255 90.5669 217.173 92.217 215.752 93.5684C214.332 94.9174 212.526 96.0139 210.396 96.0139C209.282 96.0139 207.397 95.657 205.301 93.7892C203.215 91.9305 200.944 88.5962 198.992 82.6838C196.927 76.428 195.614 68.569 194.541 60.4099L194.467 59.8447H195.037H249.767C250.866 59.8447 251.838 59.5944 252.516 59.2151C253.211 58.8267 253.5 58.3692 253.5 57.9783C253.5 57.5873 253.211 57.1298 252.516 56.7414C251.838 56.3621 250.866 56.1118 249.767 56.1118H194.44H193.997L193.944 55.6721C193.718 53.8155 193.499 51.9462 193.279 50.0757C191.87 38.078 190.454 26.0331 187.478 17.0178C186.289 13.4177 184.569 9.28275 181.659 6.05082C178.765 2.83756 174.68 0.5 168.697 0.5C162.424 0.5 158.218 3.24774 155.228 7.36558C152.217 11.5122 150.44 17.0505 149.097 22.599C149.005 22.9767 149.169 23.4144 149.734 23.8293C150.297 24.2423 151.185 24.5624 152.275 24.645C153.364 24.7267 154.395 24.5527 155.176 24.2206C155.976 23.8796 156.412 23.4207 156.515 22.9983L156.515 22.9983C158.589 14.4285 161.115 9.74424 163.386 7.19519C165.673 4.6295 167.699 4.23292 168.697 4.23292C169.811 4.23292 171.697 4.58984 173.793 6.45759C175.878 8.31641 178.15 11.6508 180.101 17.5633C183.062 26.5326 184.554 39.3318 185.852 50.4751C186.055 52.2146 186.253 53.9138 186.451 55.5518L186.519 56.1118H185.954H152.328H151.774L151.83 55.5615C152.561 48.3397 153.338 40.9811 154.355 34.309C154.413 33.9295 154.207 33.4831 153.592 33.075C152.985 32.6726 152.063 32.3773 150.967 32.3251C149.87 32.2728 148.858 32.4754 148.114 32.8262C147.35 33.1864 146.97 33.6475 146.907 34.0577L146.413 33.9824L146.907 34.0577C145.872 40.8483 145.087 48.3195 144.345 55.6621L144.299 56.1118H143.847H110.152H109.7L109.654 55.6621C108.336 42.6284 106.907 29.4347 104.094 19.5112L104.575 19.3748L104.094 19.5112C102.819 15.015 101.076 10.2519 98.1689 6.61695C95.2806 3.00555 91.2394 0.5 85.3011 0.5C80.1604 0.5 76.2516 2.2234 73.2055 5.21271C70.1445 8.21672 67.9276 12.5266 66.2456 17.7368C63.4353 26.4425 62.1607 37.511 60.8519 48.8766C60.5918 51.1355 60.3303 53.406 60.0551 55.6721ZM143.37 59.8447H143.923L143.867 60.3951C142.571 73.202 141.151 86.2478 138.392 95.9774C136.356 103.159 133.981 107.092 131.87 109.236C129.747 111.392 127.902 111.724 126.999 111.724C126.096 111.724 124.252 111.392 122.129 109.236C120.018 107.092 117.643 103.159 115.607 95.9774C112.849 86.2475 111.428 73.202 110.132 60.3951L110.076 59.8447H110.629H143.37ZM58.9624 59.845H59.5324L59.4581 60.4102C58.3857 68.5693 57.0735 76.4286 55.0081 82.6841C53.6466 86.8079 52.0078 89.9906 50.2036 92.21C48.4006 94.428 46.4011 95.7198 44.3232 95.9688C42.2334 96.2191 40.1738 95.4019 38.2902 93.6307C36.4126 91.8651 34.6846 89.132 33.2138 85.4694C30.476 78.6541 28.9394 69.4955 27.7491 60.41L27.675 59.845H28.2448H58.9624Z" stroke="#3590F3"/>
</svg>
